Coordinates
version=1
nRows=11
nColumns=42
inDegrees=yes

Units are S.I. units (second, meters, Newtons, ...)
If the header above contains a line with 'inDegrees', this indicates whether rotational values are in degrees (yes) or radians (no).

endheader
time	pelvis_tilt	pelvis_list	pelvis_rotation	pelvis_tx	pelvis_ty	pelvis_tz	hip_flexion_r	hip_adduction_r	hip_rotation_r	knee_angle_r	knee_adduction_r	knee_angle_r_beta	ankle_angle_r	subtalar_angle_r	mtp_angle_r	hip_flexion_l	hip_adduction_l	hip_rotation_l	knee_angle_l	knee_adduction_l	knee_angle_l_beta	ankle_angle_l	subtalar_angle_l	mtp_angle_l	lumbar_extension	lumbar_bending	lumbar_rotation	arm_flex_r	arm_add_r	arm_rot_r	elbow_flex_r	pro_sup_r	wrist_flex_r	wrist_dev_r	arm_flex_l	arm_add_l	arm_rot_l	elbow_flex_l	pro_sup_l	wrist_flex_l	wrist_dev_l
     12.90500000	     -6.95569383	     -1.51144393	      3.17102828	      0.78061061	      0.97113655	      0.49259597	     14.04562180	      1.41035294	     -6.09155280	     16.42983138	      6.25096954	      0.28675465	      1.51744832	     -2.24740199	     -7.29783043	     29.49809578	     -2.49841331	     -5.99717236	     67.29964597	      6.43431604	      1.17460041	     -4.05316119	     -4.64617056	    -15.27744613	      0.00000000	      0.00000000	      0.00000000	      0.00000000	     -5.76131855	      0.00000000	     71.75471810	     90.00000001	      0.00000000	      0.00000000	      0.00000000	     -5.76131855	      0.00000000	     71.75471810	     90.00000001	      0.00000000	      0.00000000
     12.91000000	     -6.90351228	     -1.30371915	      3.13342589	      0.78016687	      0.97206675	      0.49275534	     13.38844934	      1.23108695	     -5.93141665	     15.98356337	      6.25096954	      0.27896581	      1.58517295	     -2.08167076	     -7.22814274	     29.81958950	     -2.29408997	     -6.15864964	     66.45402243	      6.43431604	      1.15984149	     -3.79489307	     -4.83603488	    -15.24548306	      0.00000000	      0.00000000	      0.00000000	      0.00000000	     -5.77513134	      0.00000000	     71.76414904	     90.00000001	      0.00000000	      0.00000000	      0.00000000	     -5.77513134	      0.00000000	     71.76414904	     90.00000001	      0.00000000	      0.00000000
     12.91500000	     -6.90641924	     -1.35775435	      3.08852873	      0.77935034	      0.97252151	      0.49298448	     12.98709001	      1.34289566	     -6.09397398	     15.88074720	      6.25096954	      0.27717133	      1.76080835	     -2.13946666	     -7.24019449	     30.35056928	     -2.42076216	     -6.26913900	     65.78312987	      6.43431604	      1.14813221	     -3.55399805	     -4.87748048	    -15.23172051	      0.00000000	      0.00000000	      0.00000000	      0.00000000	     -5.77833413	      0.00000000	     71.76632134	     90.00000001	      0.00000000	      0.00000000	      0.00000000	     -5.77833413	      0.00000000	     71.76632134	     90.00000001	      0.00000000	      0.00000000
     12.92000000	     -6.80678071	     -0.97066816	      3.03864050	      0.77891023	      0.97366656	      0.49306588	     12.21470762	      0.96101143	     -5.86774289	     15.30085219	      6.25096954	      0.26705025	      1.80088189	     -1.95062313	     -7.05289834	     30.48294796	     -2.02494166	     -6.51702066	     64.62801538	      6.43431604	      1.12797166	     -3.33904462	     -5.32196541	    -14.98735344	      0.00000000	      0.00000000	      0.00000000	      0.00000000	     -5.80658562	      0.00000000	     71.78558022	     90.00000001	      0.00000000	      0.00000000	      0.00000000	     -5.80658562	      0.00000000	     71.78558022	     90.00000001	      0.00000000	      0.00000000
     12.92500000	     -6.90503759	     -0.83344636	      3.00435309	      0.77833853	      0.97420376	      0.49310600	     11.79391793	      0.83712509	     -5.79761638	     14.98037606	      6.25096954	      0.26145689	      1.85841140	     -1.73494669	     -7.02381819	     30.95213099	     -1.89686412	     -6.62182407	     63.65471183	      6.43431604	      1.11098431	     -3.07790766	     -5.30772115	    -14.94609102	      0.00000000	      0.00000000	      0.00000000	      0.00000000	     -5.81667011	      0.00000000	     71.79243171	     90.00000001	      0.00000000	      0.00000000	      0.00000000	     -5.81667011	      0.00000000	     71.79243171	     90.00000001	      0.00000000	      0.00000000
     12.93000000	     -6.91090367	     -0.98467442	      2.98132494	      0.77736543	      0.97447877	      0.49332943	     11.42180976	      1.04684007	     -5.87757335	     14.92341642	      6.25096954	      0.26046275	      2.01419677	     -1.74083052	     -7.05055023	     31.45636648	     -2.11115286	     -6.64810287	     62.82121013	      6.43431604	      1.09643696	     -2.90743657	     -5.26969423	    -14.90812704	      0.00000000	      0.00000000	      0.00000000	      0.00000000	     -5.81964234	      0.00000000	     71.79443868	     90.00000001	      0.00000000	      0.00000000	      0.00000000	     -5.81964234	      0.00000000	     71.79443868	     90.00000001	      0.00000000	      0.00000000
     12.93500000	     -6.84906439	     -0.55128038	      2.85542818	      0.77695497	      0.97552364	      0.49348209	     10.70693429	      0.62135895	     -5.53769507	     14.33851751	      6.25096954	      0.25025434	      2.00597976	     -1.52571890	     -6.92252600	     31.50456960	     -1.67854693	     -6.84838347	     61.39331288	      6.43431604	      1.07151545	     -2.81553324	     -5.62308484	    -14.55543867	      0.00000000	      0.00000000	      0.00000000	      0.00000000	     -5.85397074	      0.00000000	     71.81772910	     90.00000001	      0.00000000	      0.00000000	      0.00000000	     -5.85397074	      0.00000000	     71.81772910	     90.00000001	      0.00000000	      0.00000000
     12.94000000	     -6.97240880	     -0.42443986	      2.80882355	      0.77653085	      0.97590095	      0.49348189	     10.31955252	      0.50162430	     -5.46809480	     14.03660027	      6.25096954	      0.24498489	      2.07710925	     -1.39960222	     -6.92007961	     31.90350441	     -1.57204316	     -6.93201170	     60.20713954	      6.43431604	      1.05081282	     -2.62033379	     -5.51540570	    -14.45928091	      0.00000000	      0.00000000	      0.00000000	      0.00000000	     -5.86458148	      0.00000000	     71.82490222	     90.00000001	      0.00000000	      0.00000000	      0.00000000	     -5.86458148	      0.00000000	     71.82490222	     90.00000001	      0.00000000	      0.00000000
     12.94500000	     -7.00528851	     -0.56457462	      2.77680226	      0.77562701	      0.97604829	      0.49355122	      9.97185776	      0.68984067	     -5.54170015	     13.94773208	      6.25096954	      0.24343385	      2.20920590	     -1.38606453	     -6.95003716	     32.33999836	     -1.76803903	     -6.90488646	     59.16131743	      6.43431604	      1.03255978	     -2.49813950	     -5.41108534	    -14.39212943	      0.00000000	      0.00000000	      0.00000000	      0.00000000	     -5.86864838	      0.00000000	     71.82764115	     90.00000001	      0.00000000	      0.00000000	      0.00000000	     -5.86864838	      0.00000000	     71.82764115	     90.00000001	      0.00000000	      0.00000000
     12.95000000	     -6.87793376	     -0.11135039	      2.61295722	      0.77523175	      0.97702330	      0.49363526	      9.22839479	      0.22788046	     -5.23241554	     13.44373445	      6.25096954	      0.23463743	      2.18907222	     -1.14480731	     -6.98792289	     32.20721147	     -1.35363221	     -7.12792436	     57.50267257	      6.43431604	      1.00361096	     -2.48265331	     -5.65122545	    -13.96214505	      0.00000000	      0.00000000	      0.00000000	      0.00000000	     -5.89844357	      0.00000000	     71.84776920	     90.00000001	      0.00000000	      0.00000000	      0.00000000	     -5.89844357	      0.00000000	     71.84776920	     90.00000001	      0.00000000	      0.00000000
     12.95500000	     -6.93055304	     -0.32350092	      2.58016457	      0.77428170	      0.97697632	      0.49359388	      8.92771172	      0.49291082	     -5.36033606	     13.42132421	      6.25096954	      0.23424630	      2.36563743	     -1.18816669	     -7.02671157	     32.65054689	     -1.63172295	     -7.08635639	     56.40567930	      6.43431604	      0.98446482	     -2.39224155	     -5.48233065	    -13.89699145	      0.00000000	      0.00000000	      0.00000000	      0.00000000	     -5.90219610	      0.00000000	     71.85028561	     90.00000001	      0.00000000	      0.00000000	      0.00000000	     -5.90219610	      0.00000000	     71.85028561	     90.00000001	      0.00000000	      0.00000000
